<svg xmlns="http://www.w3.org/2000/svg" xmlns:xlink="http://www.w3.org/1999/xlink" width="101.492" height="302.033" viewBox="0 0 101.492 302.033">
  <defs>
    <clipPath id="clip-path">
      <rect id="Rectángulo_278766" data-name="Rectángulo 278766" width="101.492" height="302.033" fill="none"/>
    </clipPath>
    <clipPath id="clip-path-3">
      <rect id="Rectángulo_278759" data-name="Rectángulo 278759" width="5.828" height="5.073" transform="translate(38.949 30.985)" fill="none"/>
    </clipPath>
    <clipPath id="clip-path-4">
      <rect id="Rectángulo_278760" data-name="Rectángulo 278760" width="25.5" height="20.719" transform="translate(32.874 37.62)" fill="#147dc4"/>
    </clipPath>
    <clipPath id="clip-path-5">
      <rect id="Rectángulo_278761" data-name="Rectángulo 278761" width="55.64" height="69.08" transform="translate(17.884 89.4)" fill="#147dc4"/>
    </clipPath>
    <clipPath id="clip-path-6">
      <rect id="Rectángulo_278762" data-name="Rectángulo 278762" width="4.13" height="2.363" transform="translate(20.969 106.168)" fill="none"/>
    </clipPath>
    <clipPath id="clip-path-7">
      <rect id="Rectángulo_278763" data-name="Rectángulo 278763" width="4.128" height="2.015" transform="translate(20.242 108.651)" fill="none"/>
    </clipPath>
    <clipPath id="clip-path-8">
      <rect id="Rectángulo_278764" data-name="Rectángulo 278764" width="3.157" height="1.483" transform="translate(19.764 110.852)" fill="none"/>
    </clipPath>
  </defs>
  <g id="Grupo_840875" data-name="Grupo 840875" transform="translate(4600 7299.033)">
    <g id="Grupo_840874" data-name="Grupo 840874">
      <g id="Grupo_840867" data-name="Grupo 840867" transform="translate(-4600 -7299.033)">
        <g id="Grupo_840861" data-name="Grupo 840861" clip-path="url(#clip-path)">
          <g id="Grupo_840860" data-name="Grupo 840860">
            <g id="Grupo_840859" data-name="Grupo 840859" clip-path="url(#clip-path)">
              <path id="Trazado_561354" data-name="Trazado 561354" d="M11.734,86.54a.405.405,0,0,0-.05.09c.44.77.98,1.6,1.54,2.43,2.05,2.93,4.42,5.92,6.81,8.87.31.39.63.78.94,1.17.48.58.94,1.16,1.41,1.74l-2.14,2.35-1.95,2.13-.45.5a2.476,2.476,0,0,1-.26-.19c-.36-.25-.72-.5-1.07-.76A90.787,90.787,0,0,1,5.464,95.6a35.164,35.164,0,0,1-2.92-3.27,21.67,21.67,0,0,1-1.47-2.13c-.12-.19-.25-.45-.37-.68l-.19-.37a7.808,7.808,0,0,1-.33-1c-.04-.17-.07-.35-.1-.5l-.04-.34c-.02-.22-.04-.44-.04-.67a3.81,3.81,0,0,1,.01-.5,7.125,7.125,0,0,1,.08-.81,5.36,5.36,0,0,1,.1-.62l.12-.49a18.506,18.506,0,0,1,.95-2.7c.31-.74.62-1.42.94-2.07.63-1.29,1.27-2.51,1.93-3.7,2.66-4.71,5.46-9.1,8.4-13.41,2.96-4.31,6.05-8.38,9.35-12.46l10.71,8.18c-2.93,4.08-6.03,8.16-9.08,12.18l-4.55,6.04c-1.51,2-3.01,4-4.4,5.99-.71.99-1.39,1.97-2,2.92-.31.47-.59.93-.83,1.35" fill="#ffb573"/>
              <path id="Trazado_561355" data-name="Trazado 561355" d="M73.523,116.627a.953.953,0,0,1-.087.048c-.4.311-2.35,1.759-5.117,3.759-8.234,5.9-23.711,16.612-27.245,16.175-2.156-.272-6.972-4.242-11.661-8.573-3.612-3.331-7.146-6.884-9.321-9.126-.01,0-.01-.011-.01-.011-1.369-1.388-2.194-2.272-2.194-2.272,3.8-20.574,3.9-28.42,4.01-33.43a4.427,4.427,0,0,0-.02-.524c-.078-2.136-.835-6.2-1.485-10.846C20.2,70.39,20,68.9,19.849,67.4c-.816-8.059-.67-16.526,3.942-19.264.592-.349,1.2-.709,1.845-1.1.048-.029.107-.068.175-.107,1.66-.98,3.466-2.057,5.233-3.106,1.427-.855,2.825-1.689,4.107-2.456,3.33-1.982,5.836-3.477,5.836-3.477l8.884-.432a31.579,31.579,0,0,1,5.1.155l.056,0c.933.1,2.03.244,3.234.427.048.011.116.021.165.029.223.039.446.069.67.117.8.137,1.611.281,2.456.477.194.037.408.087.622.126.184.048.359.1.543.135.262.059.515.116.767.184.01,0,.01,0,.02.01.689.166,1.388.36,2.087.573v.009c.767.224,1.525.486,2.282.758,4.331,1.593,3.117,13.263,1.34,24.2C67.93,72.585,66.357,80.119,66.357,83.2c0,3.729,4.758,17.817,7.166,33.43" fill="#ffb573"/>
              <path id="Trazado_561356" data-name="Trazado 561356" d="M43.506,34.962,46.818,1.845S36.036-4.346,29.132,5.956c-5.889,8.786.668,16.6-2.576,25.568-1.111,3.069-2.223,4.605-2.765,6.776,4.684,1.265,11.675-1.1,19.715-3.338" fill="#263238"/>
              <path id="Trazado_561357" data-name="Trazado 561357" d="M46.689,35.345c4.5-1.41,10.539-1.012,16.442-1.385-.155-.243-1.1-1.743-1.278-2-2.092-3.156,2.694-8.286.181-12.624s-2.258-3.885-2.844-9.744C58.437,2.064,44.1-2.833,42.51,2.416c0,0-1.84,4.27,2.2,11.188s4.763,9.248,2.311,12.562c-1.788,2.417-1.284,5.732-.331,9.179" fill="#263238"/>
              <path id="Trazado_561358" data-name="Trazado 561358" d="M39,39.369c-.051.089-.091.179-.134.269-1.646,7.388,8.019,5.421,12.094-.985-2.706-3.6-2.863-9.786-2.238-14.326l-8.185,6.759-1.587,1.52a14.639,14.639,0,0,1,.7,3.452A5.755,5.755,0,0,1,39,39.369" fill="#ffb573"/>
              <g id="Grupo_840843" data-name="Grupo 840843" opacity="0.2">
                <g id="Grupo_840842" data-name="Grupo 840842">
                  <g id="Grupo_840841" data-name="Grupo 840841" clip-path="url(#clip-path-3)">
                    <path id="Trazado_561359" data-name="Trazado 561359" d="M39.651,36.059a14.679,14.679,0,0,0-.7-3.452l1.587-1.52,4.241-.1s-2,4.1-5.126,5.073"/>
                  </g>
                </g>
              </g>
              <path id="Trazado_561360" data-name="Trazado 561360" d="M51.8,15.839c-1.116,8.2-1.478,10.3-5.878,14.221-6.617,5.9-16.191,4.137-17.5-4.233-1.179-7.535.845-19.684,9-22.367C45.461.816,52.917,7.636,51.8,15.839" fill="#ffb573"/>
              <path id="Trazado_561361" data-name="Trazado 561361" d="M49.886,6.007S38.443.877,36.9,8.369c-.484,2.353-3.372,1.83-6.764,1.427s2.8-6.763,6.2-8.343S48.83,3.769,49.886,6.007" fill="#263238"/>
              <path id="Trazado_561362" data-name="Trazado 561362" d="M32.436,24.278a19.933,19.933,0,0,0,6.754-.825s-1.369,3.345-3.856,3.46-2.9-2.635-2.9-2.635" fill="#fff"/>
              <path id="Trazado_561363" data-name="Trazado 561363" d="M40.227,16.969c-.05.671-.447,1.188-.885,1.155s-.753-.6-.7-1.274.447-1.188.886-1.155.753.6.7,1.274" fill="#263238"/>
              <path id="Trazado_561364" data-name="Trazado 561364" d="M33.217,16.619c-.051.671-.447,1.188-.886,1.155s-.753-.6-.7-1.274.446-1.188.885-1.155.753.6.7,1.274" fill="#263238"/>
              <path id="Trazado_561365" data-name="Trazado 561365" d="M32.705,15.4l-1.576-.586s.732,1.321,1.576.586" fill="#263238"/>
              <path id="Trazado_561366" data-name="Trazado 561366" d="M34.594,16.934s-1.29,1.691-2.661,3.14a1.008,1.008,0,0,0,.2,1.566,9.98,9.98,0,0,0,2.032.867Z" fill="#ed893e"/>
              <path id="Trazado_561367" data-name="Trazado 561367" d="M40.762,15.49a.393.393,0,0,1-.219-.221,3.152,3.152,0,0,0-2.085-1.951.4.4,0,0,1,.158-.775,3.923,3.923,0,0,1,2.662,2.436.4.4,0,0,1-.516.511" fill="#263238"/>
              <path id="Trazado_561368" data-name="Trazado 561368" d="M29.648,13.367a.4.4,0,0,1-.2-.7,3.922,3.922,0,0,1,3.516-.8.4.4,0,0,1-.243.752,3.128,3.128,0,0,0-2.777.667.394.394,0,0,1-.3.084" fill="#263238"/>
              <path id="Trazado_561369" data-name="Trazado 561369" d="M39.715,15.746l-1.576-.586s.732,1.321,1.576.586" fill="#263238"/>
              <path id="Trazado_561370" data-name="Trazado 561370" d="M57.341,10.21c-.612,4.2-.086,5.324,1.093,6.921l-6.947,4.788a5.953,5.953,0,0,0-1.442-.94c-.273-.151-.571-.338-.88-.532-1.839-1.189-4.062-3.122-3.831-6.25.058-.879.075-1.711.054-2.477-.024-.785-.087-1.505-.172-2.181C44.588,4.72,42.51,2.417,42.51,2.417c1.223-3.158,15.975-.079,14.831,7.793" fill="#263238"/>
              <path id="Trazado_561371" data-name="Trazado 561371" d="M54.3,21.767a5.315,5.315,0,0,1-3.465,2.664c-1.87.374-2.629-1.7-1.961-3.7.6-1.8,2.3-4.164,4.1-3.627,1.78.528,2.3,2.926,1.322,4.666" fill="#ffb573"/>
              <path id="Trazado_561372" data-name="Trazado 561372" d="M50.474,25.257a1.353,1.353,0,1,0-.309-1.889,1.354,1.354,0,0,0,.309,1.889" fill="#fff"/>
              <path id="Trazado_561373" data-name="Trazado 561373" d="M17.884,116.624s-6.8,36.69,1.039,66.8c7.837,30.087,7.323,31.618,10.381,48.7s18.424,58.8,18.424,58.8h8.039s-9.449-112.1-11.073-127.538,5.455-42.328-26.81-46.757" fill="#ffb573"/>
              <path id="Trazado_561374" data-name="Trazado 561374" d="M47.272,289.786s-.608,5.523-3.185,6.438-10.88,3.3-12.216,3.779.19,1.35.859,1.821,24.72,0,24.72,0a8.228,8.228,0,0,0,.088-5.363,50.9,50.9,0,0,1-1.86-6.606Z" fill="#ffb573"/>
              <path id="Trazado_561375" data-name="Trazado 561375" d="M73.522,116.624s7.465,45.418,4.05,82.985c-2.206,24.264-7.4,91.31-7.4,91.31H63s-13.016-58.26-8.133-84.437c0,0-13.763-52.1-13.794-69.874s32.445-19.984,32.445-19.984" fill="#ffb573"/>
              <path id="Trazado_561376" data-name="Trazado 561376" d="M63,290.919s.212,5.411-.521,6.473c-2.346,3.4.081,4.641.081,4.641H76.37s.749-1.344-1.192-3.164-4.582-4.376-4.766-5.927a41.831,41.831,0,0,1,.062-5.908Z" fill="#ffb573"/>
              <path id="Trazado_561377" data-name="Trazado 561377" d="M73.524,116.63a.923.923,0,0,1-.09.05,41.76,41.76,0,0,0-5.12,3.75c-6.76,5.62-18.4,17.72-24.27,38.05,0,0-5.98-18.32-14.63-30.44-2.87-4.02-6-7.35-9.32-9.13a.01.01,0,0,1-.01-.01c-1.37-1.39-2.2-2.27-2.2-2.27,1.99-10.75,2.96-18.02,3.45-23.23l.01-.01c.45-4.76.5-7.8.55-10.19a4.522,4.522,0,0,0-.02-.53c-.07-2.13-.83-6.2-1.48-10.84,3.12-3.97,6.21-12.97,5.95-20.55a35.456,35.456,0,0,0-.71-4.24c.05-.03.11-.07.18-.11,1.66-.98,3.46-2.06,5.23-3.1q.945-.57,1.86-1.11,1.17-.705,2.25-1.35c.43,5.49-1.95,13.65,4.86,13.36,10.03-.42,14.15-11.87,15.01-17.11.93.1,2.03.24,3.24.43.03.01.07.01.11.02.02,0,.03.01.05.01.22.04.45.07.67.11.8.14,1.61.29,2.46.48.19.04.4.09.62.13.18.04.36.09.54.13.26.06.52.12.77.19.01,0,.01,0,.02.01-1.99,3.89-2.94,12.42-2.64,15.83.4,4.51,4.59,8.75,8.35,9.71-1.28,7.92-2.86,15.45-2.86,18.53a34.385,34.385,0,0,0,1.16,6.2c1.57,6.42,4.35,16.46,6.01,27.23" fill="#079bff"/>
              <g id="Grupo_840846" data-name="Grupo 840846" style="isolation: isolate">
                <g id="Grupo_840845" data-name="Grupo 840845">
                  <g id="Grupo_840844" data-name="Grupo 840844" clip-path="url(#clip-path-4)">
                    <path id="Trazado_561378" data-name="Trazado 561378" d="M58.374,38.07c-.78,5.38-4.46,13.743-11.18,17.663-8.12,4.76-13.386,2.5-14.072-2.75-.538-4.119,0-7.375-.218-10.263q1.17-.705,2.25-1.35c.43,5.49-1.95,13.65,4.86,13.36,10.03-.42,14.15-11.87,15.01-17.11.93.1,2.03.24,3.24.43.03.01.07.01.11.02" fill="#147dc4"/>
                  </g>
                </g>
              </g>
              <path id="Trazado_561379" data-name="Trazado 561379" d="M73.524,116.63a.923.923,0,0,1-.09.05,41.76,41.76,0,0,0-5.12,3.75c-6.76,5.62-18.4,17.72-24.27,38.05,0,0-5.98-18.32-14.63-30.44-2.87-4.02-6-7.35-9.32-9.13a.01.01,0,0,1-.01-.01c-1.37-1.39-2.2-2.27-2.2-2.27,1.99-10.75,2.96-18.02,3.45-23.23l.01-.01s6.74,7.58,19.73,8.43c11.91.78,24.43-10.52,26.44-12.42,1.57,6.42,4.35,16.46,6.01,27.23" fill="#407bff"/>
              <g id="Grupo_840849" data-name="Grupo 840849" style="isolation: isolate">
                <g id="Grupo_840848" data-name="Grupo 840848">
                  <g id="Grupo_840847" data-name="Grupo 840847" clip-path="url(#clip-path-5)">
                    <path id="Trazado_561380" data-name="Trazado 561380" d="M73.524,116.63a.923.923,0,0,1-.09.05,41.76,41.76,0,0,0-5.12,3.75c-6.76,5.62-18.4,17.72-24.27,38.05,0,0-5.98-18.32-14.63-30.44-2.87-4.02-6-7.35-9.32-9.13a.01.01,0,0,1-.01-.01c-1.37-1.39-2.2-2.27-2.2-2.27,1.99-10.75,2.96-18.02,3.45-23.23l.01-.01s6.74,7.58,19.73,8.43c11.91.78,24.43-10.52,26.44-12.42,1.57,6.42,4.35,16.46,6.01,27.23" fill="#147dc4"/>
                  </g>
                </g>
              </g>
              <path id="Trazado_561381" data-name="Trazado 561381" d="M20.262,102.318s6.47,4.09,6.667,5.555-1.938.549-1.938.549,2.294,1.135,1.988,2.052c-.368,1.1-2.6.133-2.6.133s1.838.994,1.5,1.788c-.346.824-2.935-.111-2.935-.111s1.173.913.586,1.315-5.437-1.232-6.715-2.747.755-7.57,1.563-8.808-.183-3.01,2.492-4.341Z" fill="#ffb573"/>
              <g id="Grupo_840852" data-name="Grupo 840852" opacity="0.2">
                <g id="Grupo_840851" data-name="Grupo 840851">
                  <g id="Grupo_840850" data-name="Grupo 840850" clip-path="url(#clip-path-6)">
                    <path id="Trazado_561382" data-name="Trazado 561382" d="M24.948,108.522l-.009-.005-3.914-2.145a.11.11,0,0,1-.043-.148.111.111,0,0,1,.148-.043l3.913,2.146a.109.109,0,0,1-.095.195"/>
                  </g>
                </g>
              </g>
              <g id="Grupo_840855" data-name="Grupo 840855" opacity="0.2">
                <g id="Grupo_840854" data-name="Grupo 840854">
                  <g id="Grupo_840853" data-name="Grupo 840853" clip-path="url(#clip-path-7)">
                    <path id="Trazado_561383" data-name="Trazado 561383" d="M24.219,110.657h0l-3.911-1.8a.109.109,0,1,1,.091-.2l3.91,1.8a.108.108,0,0,1,.054.144.11.11,0,0,1-.142.054"/>
                  </g>
                </g>
              </g>
              <g id="Grupo_840858" data-name="Grupo 840858" opacity="0.2">
                <g id="Grupo_840857" data-name="Grupo 840857">
                  <g id="Grupo_840856" data-name="Grupo 840856" clip-path="url(#clip-path-8)">
                    <path id="Trazado_561384" data-name="Trazado 561384" d="M22.77,112.326l-2.94-1.265a.109.109,0,0,1,.085-.2l2.941,1.266a.108.108,0,1,1-.086.2"/>
                  </g>
                </g>
              </g>
              <path id="Trazado_561385" data-name="Trazado 561385" d="M26.344,51.283s-.5,4.144-5.891,11.034c-5.515,7.053,1.317,16.2,1.317,16.2,1.771-11.229,5.319-21.388,4.574-27.236" fill="#079bff"/>
              <path id="Trazado_561386" data-name="Trazado 561386" d="M101.486,74.838a6.958,6.958,0,0,1-.262,1.68,8.733,8.733,0,0,1-.67,1.689,13.948,13.948,0,0,1-1.117,1.748c-.349.456-.67.854-.99,1.233-.641.748-1.262,1.4-1.884,2.039-2.476,2.505-4.971,4.641-7.5,6.777-5.059,4.224-10.244,8.1-15.642,11.817l-4.408-5.088L81.9,82.567c2.1-2.34,4.185-4.719,5.991-7.02a.035.035,0,0,1,.01-.02c-2.02-1.844-4.234-3.709-6.4-5.592L74.231,63.74q-3.743-3.161-7.456-6.379V42.9l1.747-2.059c5.011,4.127,9.875,8.341,14.671,12.71,2.4,2.175,4.777,4.379,7.137,6.641s4.67,4.525,7.049,7.049c.612.651,1.194,1.282,1.893,2.127.185.213.379.456.6.757l.175.252.223.321.243.4c.136.243.262.485.379.728l.048.107.088.223c.058.156.116.311.165.466a7.234,7.234,0,0,1,.2.855,5.584,5.584,0,0,1,.077.738,4.423,4.423,0,0,1,.01.621" fill="#ffb573"/>
              <path id="Trazado_561387" data-name="Trazado 561387" d="M70.7,94.909s-3.464,2.084-2.817,4.846,3.353,5.26,3.838,7.524,1.043,7.922,1.573,8.079,1.583-7.546,1.5-8.985a29.59,29.59,0,0,0-1.5-5.219Z" fill="#ffb573"/>
              <path id="Trazado_561388" data-name="Trazado 561388" d="M74.751,107.473s.728,2.9.445,3.961a21.337,21.337,0,0,0-.728,4.345c.081.718-1.173-.226-.931-2.381a58.36,58.36,0,0,1,1.214-5.925" fill="#ffb573"/>
              <path id="Trazado_561389" data-name="Trazado 561389" d="M68.319,99.148a7.01,7.01,0,0,0,0,3.14,21.69,21.69,0,0,1,.647,4.837c0,1.361,1.012,2.23,1.538,1.814s.2-2.985.445-4.913-2.63-4.878-2.63-4.878" fill="#ffb573"/>
            </g>
          </g>
        </g>
      </g>
      <g id="Rectángulo_278777" data-name="Rectángulo 278777" transform="translate(-4587 -7299)" fill="none" stroke="#67ebfd" stroke-width="3" opacity="0.679">
        <rect width="58" height="33" stroke="none"/>
        <rect x="1.5" y="1.5" width="55" height="30" fill="none"/>
      </g>
    </g>
  </g>
</svg>
