<svg xmlns="http://www.w3.org/2000/svg" xmlns:xlink="http://www.w3.org/1999/xlink" width="823" height="228.642" viewBox="0 0 823 228.642">
  <defs>
    <linearGradient id="linear-gradient" x1="-0.001" y1="0.5" x2="0.999" y2="0.5" gradientUnits="objectBoundingBox">
      <stop offset="0" stop-color="#fc2b0e"/>
      <stop offset="0.148" stop-color="#feb002"/>
      <stop offset="0.305" stop-color="#fdf274"/>
      <stop offset="0.502" stop-color="#ecfea8"/>
      <stop offset="0.685" stop-color="#a5fee3"/>
      <stop offset="0.857" stop-color="#00e1ff"/>
      <stop offset="1" stop-color="#029ffe"/>
    </linearGradient>
  </defs>
  <g id="Grupo_840874" data-name="Grupo 840874" transform="translate(-388.5 -3452.886)">
    <g id="Grupo_840869" data-name="Grupo 840869">
      <text id="_5.000K" data-name="5.000K" transform="translate(732.771 3677.527)" fill="#12263f" font-size="16" font-family="Roboto-Bold, Roboto" font-weight="700"><tspan x="-25.762" y="0">5.000K</tspan></text>
      <text id="Sol" transform="translate(734.563 3469.886)" fill="#12263f" font-size="16" font-family="Roboto-Bold, Roboto" font-weight="700"><tspan x="-11.563" y="0">Sol</tspan></text>
      <rect id="Rectángulo_268426" data-name="Rectángulo 268426" width="820" height="158.85" transform="translate(390 3487.67)" fill="url(#linear-gradient)"/>
      <text id="Fluorescente" transform="translate(601.102 3470.17)" fill="#12263f" font-size="16" font-family="Roboto-Bold, Roboto" font-weight="700"><tspan x="-46.863" y="0">Fluorescente</tspan></text>
      <text id="Tungsteno" transform="translate(465.781 3470.17)" fill="#12263f" font-size="16" font-family="Roboto-Bold, Roboto" font-weight="700"><tspan x="-38.363" y="0">Tungsteno</tspan></text>
      <text id="Flash" transform="translate(867.645 3470.17)" fill="#12263f" font-size="16" font-family="Roboto-Bold, Roboto" font-weight="700"><tspan x="-19.383" y="0">Flash</tspan></text>
      <text id="Nublado" transform="translate(1002.344 3470.17)" fill="#12263f" font-size="16" font-family="Roboto-Bold, Roboto" font-weight="700"><tspan x="-30.07" y="0">Nublado</tspan></text>
      <text id="Sombra" transform="translate(1133 3470.17)" fill="#12263f" font-size="16" font-family="Roboto-Bold, Roboto" font-weight="700"><tspan x="-27.961" y="0">Sombra</tspan></text>
      <path id="Trazado_561392" data-name="Trazado 561392" d="M-7865-8268.016v175.988" transform="translate(8999.219 11747.186)" fill="none" stroke="#16263d" stroke-width="1"/>
      <path id="Trazado_561393" data-name="Trazado 561393" d="M-7865-8268.016v175.988" transform="translate(8867.519 11747.186)" fill="none" stroke="#16263d" stroke-width="1"/>
      <path id="Trazado_561394" data-name="Trazado 561394" d="M-7865-8268.016v175.988" transform="translate(8735.645 11747.186)" fill="none" stroke="#16263d" stroke-width="1"/>
      <path id="Trazado_561395" data-name="Trazado 561395" d="M-7865-8268.016v175.988" transform="translate(8600.946 11747.186)" fill="none" stroke="#16263d" stroke-width="1"/>
      <path id="Trazado_561396" data-name="Trazado 561396" d="M-7865-8268.016v175.988" transform="translate(8467.863 11747.186)" fill="none" stroke="#16263d" stroke-width="1"/>
      <path id="Trazado_561397" data-name="Trazado 561397" d="M-7865-8268.016v175.988" transform="translate(8334.402 11747.186)" fill="none" stroke="#16263d" stroke-width="1"/>
      <text id="_4.000K" data-name="4.000K" transform="translate(606.99 3677.527)" fill="#12263f" font-size="16" font-family="Roboto-Bold, Roboto" font-weight="700"><tspan x="-25.762" y="0">4.000K</tspan></text>
      <text id="_2.700K_-_3.000K" data-name="2.700K - 3.000K" transform="translate(470.65 3677.527)" fill="#12263f" font-size="16" font-family="Roboto-Bold, Roboto" font-weight="700"><tspan x="-58.609" y="0">2.700K - 3.000K</tspan></text>
      <text id="_5.500K" data-name="5.500K" transform="translate(867.645 3677.527)" fill="#12263f" font-size="16" font-family="Roboto-Bold, Roboto" font-weight="700"><tspan x="-25.762" y="0">5.500K</tspan></text>
      <text id="_6.000K" data-name="6.000K" transform="translate(1002.519 3677.527)" fill="#12263f" font-size="16" font-family="Roboto-Bold, Roboto" font-weight="700"><tspan x="-25.762" y="0">6.000K</tspan></text>
      <text id="_7.000K" data-name="7.000K" transform="translate(1133 3677.527)" fill="#12263f" font-size="16" font-family="Roboto-Bold, Roboto" font-weight="700"><tspan x="-25.762" y="0">7.000K</tspan></text>
      <circle id="Elipse_6495" data-name="Elipse 6495" cx="37.58" cy="37.58" r="37.58" transform="translate(428.201 3530.17)" fill="#f5f5f5" stroke="#fff" stroke-width="4"/>
      <g id="Grupo_717752" data-name="Grupo 717752" transform="translate(441.514 3542.67)">
        <path id="Trazado_473084" data-name="Trazado 473084" d="M168.763,577.987h10.354a3.974,3.974,0,0,1,.058.506,10.027,10.027,0,0,0,3.042,7.388,11.25,11.25,0,1,1-17.87,13.473,11.084,11.084,0,0,1,1.309-13.343A9.986,9.986,0,0,0,168.763,577.987Z" transform="translate(-149.719 -569.254)" fill="#afafaf"/>
        <path id="Trazado_473085" data-name="Trazado 473085" d="M177.164,577.015h-8.675c0-.853-.012-1.638,0-2.422a.925.925,0,0,1,1.022-.994q3.312-.02,6.625,0a.925.925,0,0,1,1.022,1C177.176,575.378,177.164,576.162,177.164,577.015Z" transform="translate(-148.56 -570.137)" fill="#afafaf"/>
        <path id="Trazado_473086" data-name="Trazado 473086" d="M170.669,608.536c0-.727-.028-1.454.007-2.178a1.714,1.714,0,0,1,3.427.019q.056,2.176,0,4.355a1.688,1.688,0,0,1-1.674,1.706,1.707,1.707,0,0,1-1.753-1.725C170.641,609.988,170.668,609.261,170.669,608.536Z" transform="translate(-148.123 -563.9)" fill="#afafaf"/>
        <path id="Trazado_473087" data-name="Trazado 473087" d="M189.735,589.5c.726,0,1.453-.03,2.177.007a1.714,1.714,0,1,1-.035,3.427q-2.176.054-4.354,0a1.67,1.67,0,0,1-1.692-1.681,1.71,1.71,0,0,1,1.727-1.752c.062,0,.126,0,.19,0,.662,0,1.324,0,1.987,0Z" transform="translate(-145.077 -566.946)" fill="#afafaf"/>
        <path id="Trazado_473088" data-name="Trazado 473088" d="M155.808,589.492c.694,0,1.389-.022,2.082,0a1.7,1.7,0,0,1,1.781,1.7,1.677,1.677,0,0,1-1.733,1.737c-1.419.036-2.84.032-4.259,0a1.7,1.7,0,0,1-1.788-1.692,1.737,1.737,0,0,1,1.834-1.75c.064,0,.127,0,.19,0h1.894Z" transform="translate(-151.891 -566.946)" fill="#afafaf"/>
        <path id="Trazado_473089" data-name="Trazado 473089" d="M181.71,602.16c.334-.408.627-1.084,1.1-1.262a2.157,2.157,0,0,1,1.812.172,33.656,33.656,0,0,1,3.363,3.311,1.607,1.607,0,0,1-.107,2.235,1.591,1.591,0,0,1-2.226.187c-1.212-1.1-2.347-2.284-3.476-3.469A4.125,4.125,0,0,1,181.71,602.16Z" transform="translate(-145.904 -564.679)" fill="#afafaf"/>
        <path id="Trazado_473090" data-name="Trazado 473090" d="M161.95,600.552c.406.329,1.065.617,1.267,1.1a2.014,2.014,0,0,1-.126,1.733,36.236,36.236,0,0,1-3.377,3.427,1.691,1.691,0,0,1-2.412-2.329c1.1-1.21,2.283-2.346,3.469-3.474C161,600.79,161.4,600.756,161.95,600.552Z" transform="translate(-150.88 -564.724)" fill="#afafaf"/>
        <path id="Trazado_473091" data-name="Trazado 473091" d="M186.8,575.673c.409.306,1.061.558,1.266,1.011a2,2,0,0,1-.037,1.733,34.049,34.049,0,0,1-3.594,3.6,1.5,1.5,0,0,1-2.07-.206,1.582,1.582,0,0,1-.228-2.148c1.117-1.236,2.322-2.393,3.528-3.545A3.85,3.85,0,0,1,186.8,575.673Z" transform="translate(-145.884 -569.719)" fill="#afafaf"/>
        <path id="Trazado_473092" data-name="Trazado 473092" d="M156.83,577.3c.313-.4.593-1.084,1.07-1.273a2.132,2.132,0,0,1,1.816.138,34.837,34.837,0,0,1,3.421,3.383,1.634,1.634,0,0,1-.114,2.166,1.6,1.6,0,0,1-2.146.268c-1.263-1.132-2.44-2.363-3.619-3.586C157.059,578.189,157.027,577.825,156.83,577.3Z" transform="translate(-150.899 -569.676)" fill="#afafaf"/>
        <path id="Trazado_473093" data-name="Trazado 473093" d="M174.793,572.385H170.2a2.253,2.253,0,0,1,2.215-1.67A2.354,2.354,0,0,1,174.793,572.385Z" transform="translate(-148.215 -570.714)" fill="#afafaf"/>
      </g>
      <circle id="Elipse_6496" data-name="Elipse 6496" cx="37.58" cy="37.58" r="37.58" transform="translate(563.521 3530.17)" fill="#f5f5f5" stroke="#fff" stroke-width="4"/>
      <g id="Grupo_717754" data-name="Grupo 717754" transform="translate(575.581 3548.67)">
        <rect id="Rectángulo_268427" data-name="Rectángulo 268427" width="4.149" height="8.367" rx="1.724" transform="translate(23.429)" fill="#afafaf"/>
        <rect id="Rectángulo_268428" data-name="Rectángulo 268428" width="4.14" height="8.36" rx="1.724" transform="translate(23.432 29.765)" fill="#afafaf"/>
        <path id="Rectángulo_268429" data-name="Rectángulo 268429" d="M1.724,0h.8A1.724,1.724,0,0,1,4.252,1.724V5.943A1.724,1.724,0,0,1,2.529,7.666H1.723A1.723,1.723,0,0,1,0,5.943V1.724A1.724,1.724,0,0,1,1.724,0Z" transform="translate(6.742 3.234) rotate(-33.745)" fill="#afafaf"/>
        <path id="Trazado_473094" data-name="Trazado 473094" d="M294.973,580.3l1.955-2.931a2.07,2.07,0,0,1,2.865-.579l.092.062a2.071,2.071,0,0,1,.58,2.875l-1.955,2.931a2.071,2.071,0,0,1-2.87.574l-.092-.061A2.07,2.07,0,0,1,294.973,580.3Z" transform="translate(-257.303 -574.77)" fill="#afafaf"/>
        <path id="Trazado_473095" data-name="Trazado 473095" d="M275,599.823l.091.061a2.07,2.07,0,0,1,.574,2.869l-1.952,2.933a2.07,2.07,0,0,1-2.87.578l-.1-.062a2.072,2.072,0,0,1-.575-2.873l1.957-2.931A2.071,2.071,0,0,1,275,599.823Z" transform="translate(-262.282 -570.147)" fill="#afafaf"/>
        <path id="Rectángulo_268430" data-name="Rectángulo 268430" d="M1.724,0H2.53A1.723,1.723,0,0,1,4.253,1.723V5.94A1.723,1.723,0,0,1,2.53,7.664H1.724A1.724,1.724,0,0,1,0,5.94V1.724A1.724,1.724,0,0,1,1.724,0Z" transform="matrix(0.832, -0.555, 0.555, 0.832, 36.518, 30.865)" fill="#afafaf"/>
        <path id="Trazado_473096" data-name="Trazado 473096" d="M311.881,585.615q-11.354,0-22.711,0-11.554,0-23.109,0c-1.717,0-2.508.788-2.513,2.485q-.011,3.883,0,7.769a2.178,2.178,0,0,0,2.5,2.5q23.01.005,46.02,0a2.182,2.182,0,0,0,2.513-2.487q.011-3.784,0-7.57C314.578,586.337,313.86,585.615,311.881,585.615ZM272,596.182h-6.245v-8.339H272Zm40.358-.017h-6.242v-8.34h6.242Z" transform="translate(-263.543 -572.93)" fill="#afafaf"/>
      </g>
      <circle id="Elipse_6498" data-name="Elipse 6498" cx="37.58" cy="37.58" r="37.58" transform="translate(830.065 3530.17)" fill="#f5f5f5" stroke="#fff" stroke-width="4"/>
      <circle id="Elipse_6605" data-name="Elipse 6605" cx="37.58" cy="37.58" r="37.58" transform="translate(696.982 3530.17)" fill="#f5f5f5" stroke="#fff" stroke-width="4"/>
      <path id="Trazado_473106" data-name="Trazado 473106" d="M507.166,598.718h-1.191c-3.192,0-6.383.006-9.575,0-1.577,0-2.085-.712-1.587-2.209q3.827-11.556,7.669-23.111c.376-1.134.692-1.365,1.858-1.366q7.536-.005,15.071,0c1.625,0,2.178.953,1.375,2.373q-4.324,7.628-8.662,15.25c-.172.3-.328.612-.576,1.081h1.065c3.162,0,6.324-.006,9.486,0,1.131,0,1.788.489,1.691,1.334a2.433,2.433,0,0,1-.6,1.224q-10.324,11.7-20.676,23.372c-.532.6-1.1,1.012-1.92.556-.686-.383-.828-1.054-.417-2.022q3.238-7.619,6.49-15.233C506.812,599.617,506.946,599.263,507.166,598.718Z" transform="translate(358.432 2972.645)" fill="#afafaf"/>
      <circle id="Elipse_6499" data-name="Elipse 6499" cx="37.58" cy="37.58" r="37.58" transform="translate(964.764 3530.17)" fill="#f5f5f5" stroke="#fff" stroke-width="4"/>
      <path id="Trazado_473107" data-name="Trazado 473107" d="M610.745,588.571c1.427-4.237,5.961-7.16,11.451-4.731a10.31,10.31,0,0,1,6.888-5.4,9.962,9.962,0,0,1,6.643.7c4.565,2.122,6.479,6.457,5.456,12.457.277.079.561.171.849.241a8.63,8.63,0,0,1,6.532,9.272,8.517,8.517,0,0,1-8.334,7.668q-16.2.07-32.4,0a10.251,10.251,0,1,1,2.149-20.316C610.211,588.5,610.446,588.527,610.745,588.571Z" transform="translate(379.143 2973.51)" fill="#afafaf"/>
      <circle id="Elipse_6500" data-name="Elipse 6500" cx="37.58" cy="37.58" r="37.58" transform="translate(1096.638 3530.17)" fill="#f5f5f5" stroke="#fff" stroke-width="4"/>
      <g id="Grupo_717760" data-name="Grupo 717760" transform="translate(1107.258 3547.67)">
        <path id="Trazado_473108" data-name="Trazado 473108" d="M734.235,595.436a7.811,7.811,0,0,1,1.374.844q5.124,5.07,10.2,10.186a1.591,1.591,0,0,1,.221,2.411c-.694.718-1.611.654-2.487-.219q-5.067-5.052-10.124-10.115a1.565,1.565,0,0,1-.49-1.973C733.191,596.117,733.757,595.837,734.235,595.436Z" transform="translate(-701.022 -570.665)" fill="#afafaf"/>
        <path id="Trazado_473109" data-name="Trazado 473109" d="M738.079,606.522c-.249.325-.49.917-.917,1.122a1.776,1.776,0,0,1-1.542-.029,13.235,13.235,0,0,1-2.573-2.589,1.858,1.858,0,0,1,.113-1.77c.318-.384,1.388-.675,1.7-.44a27.015,27.015,0,0,1,2.985,2.891C737.972,605.838,737.965,606.1,738.079,606.522Z" transform="translate(-700.997 -569.2)" fill="#afafaf"/>
        <path id="Trazado_473110" data-name="Trazado 473110" d="M759.473,610.5q-17.451-17.458-34.91-34.909c-1.059-1.058-1.8-1.048-2.869.022q-7.3,7.287-14.593,14.583c-.551.55-.983,1.131-.67,1.95a1.775,1.775,0,0,0,1.97,1.064c.974-.019,1.948,0,3,0v1.28q0,8.422,0,16.843c0,1.687.5,2.183,2.2,2.184q9.474,0,18.948,0c1.855,0,2.319-.451,2.32-2.281q.005-8.368,0-16.736v-1.18a4.187,4.187,0,0,1,4.264,1.245c5.949,6.107,12.021,12.094,18.052,18.121.959.959,1.829,1.079,2.564.377S760.4,611.433,759.473,610.5Zm-31.4-7.172a1.547,1.547,0,0,1-1.691,1.719q-3.257.058-6.515,0a1.577,1.577,0,0,1-1.694-1.737q-.045-3.2,0-6.411a1.567,1.567,0,0,1,1.764-1.753q3.2-.036,6.411,0c1.173.014,1.705.576,1.73,1.77.023,1.051,0,2.1,0,3.153C728.084,601.158,728.107,602.244,728.078,603.33Z" transform="translate(-706.326 -574.806)" fill="#afafaf"/>
        <path id="Trazado_473111" data-name="Trazado 473111" d="M718.858,597.875v-3.453h3.5v3.453Z" transform="translate(-703.81 -570.869)" fill="#afafaf"/>
      </g>
      <g id="Grupo_840868" data-name="Grupo 840868" transform="translate(712.504 3545.67)">
        <path id="Trazado_473097" data-name="Trazado 473097" d="M397.189,603.243a11.043,11.043,0,1,1,11.072-10.971A11.053,11.053,0,0,1,397.189,603.243Z" transform="translate(-375.158 -570.141)" fill="#afafaf"/>
        <path id="Trazado_473098" data-name="Trazado 473098" d="M412.436,593.3c-.631,0-1.266.049-1.891-.01a2.091,2.091,0,0,1-1.942-2.135,2.043,2.043,0,0,1,1.894-2.084,32.5,32.5,0,0,1,3.953,0,2.055,2.055,0,0,1,1.9,2.079,2.1,2.1,0,0,1-1.94,2.14C413.76,593.351,413.1,593.3,412.436,593.3Z" transform="translate(-372.235 -569.117)" fill="#afafaf"/>
        <path id="Trazado_473099" data-name="Trazado 473099" d="M398.319,607.426c0,.66.053,1.325-.011,1.977a2.1,2.1,0,0,1-2.146,1.932,2.055,2.055,0,0,1-2.072-1.91,32.711,32.711,0,0,1,0-3.953,2.041,2.041,0,0,1,2.091-1.885,2.078,2.078,0,0,1,2.116,1.864,18.27,18.27,0,0,1,.014,1.976Z" transform="translate(-374.134 -567.217)" fill="#afafaf"/>
        <path id="Trazado_473100" data-name="Trazado 473100" d="M398.313,575.4a17.561,17.561,0,0,1-.012,1.89,2.084,2.084,0,0,1-2.109,1.874,2.041,2.041,0,0,1-2.1-1.878,31.88,31.88,0,0,1,.008-4.039,2.045,2.045,0,0,1,2.137-1.833,2.08,2.08,0,0,1,2.055,1.837,20.009,20.009,0,0,1,.015,2.148Z" transform="translate(-374.134 -571.411)" fill="#afafaf"/>
        <path id="Trazado_473101" data-name="Trazado 473101" d="M380.275,593.3c-.631,0-1.265.047-1.891-.01a2.105,2.105,0,0,1-1.955-2.125,2.076,2.076,0,0,1,1.971-2.107,33.772,33.772,0,0,1,3.782,0,2.077,2.077,0,0,1,2,2.17,2.105,2.105,0,0,1-2.011,2.074c-.627.052-1.261.009-1.892.009Z" transform="translate(-376.428 -569.117)" fill="#afafaf"/>
        <path id="Trazado_473102" data-name="Trazado 473102" d="M384.009,606.061a2.206,2.206,0,0,1-2.191-1.21,1.923,1.923,0,0,1,.249-2.256,36.455,36.455,0,0,1,2.8-2.794,2.123,2.123,0,0,1,3.015,2.948,37.027,37.027,0,0,1-2.859,2.856A3,3,0,0,1,384.009,606.061Z" transform="translate(-375.758 -567.775)" fill="#afafaf"/>
        <path id="Trazado_473103" data-name="Trazado 473103" d="M385.889,583.334a5.578,5.578,0,0,1-1.238-.688c-.84-.737-1.616-1.548-2.385-2.36a2.147,2.147,0,1,1,3.042-3.028c.832.789,1.648,1.6,2.43,2.438a2.011,2.011,0,0,1,.371,2.391A2.29,2.29,0,0,1,385.889,583.334Z" transform="translate(-375.756 -570.738)" fill="#afafaf"/>
        <path id="Trazado_473104" data-name="Trazado 473104" d="M411.077,579.073a5.658,5.658,0,0,1-.694,1.207c-.718.817-1.509,1.572-2.3,2.324a2.152,2.152,0,1,1-3.038-3.041c.792-.83,1.6-1.645,2.444-2.423a2.007,2.007,0,0,1,2.4-.331A2.244,2.244,0,0,1,411.077,579.073Z" transform="translate(-372.791 -570.74)" fill="#afafaf"/>
        <path id="Trazado_473105" data-name="Trazado 473105" d="M411.083,603.68a2.218,2.218,0,0,1-1.169,2.132,1.916,1.916,0,0,1-2.262-.2,34.064,34.064,0,0,1-2.858-2.856,2.122,2.122,0,0,1,2.931-3.013,35.883,35.883,0,0,1,2.917,2.916A2.865,2.865,0,0,1,411.083,603.68Z" transform="translate(-372.793 -567.776)" fill="#afafaf"/>
      </g>
      <path id="Trazado_561390" data-name="Trazado 561390" d="M-7865-8268.016v228.357" transform="translate(9075 11721.186)" fill="none" stroke="#16263d" stroke-width="3"/>
      <path id="Trazado_561391" data-name="Trazado 561391" d="M-7865-8268.016v228.357" transform="translate(8255 11721.186)" fill="none" stroke="#16263d" stroke-width="3"/>
    </g>
  </g>
</svg>
